<?xml version="1.0" encoding="UTF-8"?>
<svg id="Calque_1" xmlns="http://www.w3.org/2000/svg" version="1.1" viewBox="0 0 70.9 70.9">
  <!-- Generator: Adobe Illustrator 29.0.1, SVG Export Plug-In . SVG Version: 2.1.0 Build 192)  -->
  <defs>
    <style>
      .st0 {
        fill: #e63b57;
      }
    </style>
  </defs>
  <path class="st0" d="M40.5,37.9c.2-.1.4-.2.6-.3.7-.4,1.4-.9,2.1-1.3.5-.3.9-.6,1.4-1h.2c0-.1.4-.5.4-.5-1.6-2.8-3.1-5.6-4.6-8.4,0,3.8,0,7.7,0,11.5Z"/>
  <path class="st0" d="M30.4,26.4c-.2.3-.4.7-.6,1-1.4,2.5-2.7,4.9-4.1,7.4l.2.2.2.2h0c.2.1.3.3.5.4.5.4,1.1.7,1.6,1.1.6.4,1.2.8,1.8,1.2l.3.2c0-3.8,0-7.7,0-11.5Z"/>
  <path class="st0" d="M35.5,0C15.9,0,0,15.9,0,35.4s15.9,35.4,35.4,35.4,35.4-15.9,35.4-35.4S55,0,35.5,0ZM12.5,19.5c.9,0,1.6.7,1.6,1.6s-.7,1.6-1.6,1.6-1.6-.7-1.6-1.6.7-1.6,1.6-1.6ZM4.7,35.6c0-.9.7-1.6,1.6-1.6s1.6.7,1.6,1.6-.7,1.6-1.6,1.6-1.6-.7-1.6-1.6ZM24.3,37.4c-1.2,2.2-2.5,4.4-3.7,6.6-1.2,2.1-2.5,4.2-4.7,5.5-1,.6-2.3,1-3.5,1s-1.8-.2-2.6-.8c-1.8-1.3-2.9-3.6-3-5.8,0-1,.7-1.5,1.4-1.5s1.5.5,1.6,1.5c0,1.1.7,2.5,1.6,3.2.3.2.7.3,1.1.3s1.1-.2,1.5-.4c1.2-.6,2.2-1.7,2.9-2.8,1.8-2.9,3.4-5.9,5-8.9-.4-.4-.8-.8-1.2-1.2-.8-.8-1.5-1.6-2.3-2.3-.8-.8-1.5-1.8-2.3-2.7-1-1.1,0-2.6,1.1-2.6s.7.1,1,.5c.8.9,1.5,1.9,2.4,2.8.9.9,1.8,1.9,2.8,2.8.2-.3.4-.7.6-1,2.2-3.9,4.3-7.8,6.5-11.6.3-.5.8-.7,1.2-.7.8,0,1.6.6,1.6,1.5.3,9.8,0,19.7,0,29.5,0,1-.8,1.5-1.5,1.5s-1.5-.5-1.5-1.5c0-3,0-5.9,0-8.9-1.4-.6-2.7-1.5-4-2.3-.7-.5-1.4-1-2.1-1.5ZM31.9,60.3c-.9,0-1.6-.7-1.6-1.6s.7-1.6,1.6-1.6,1.6.7,1.6,1.6-.7,1.6-1.6,1.6ZM31.9,13.7c-.9,0-1.6-.7-1.6-1.6s.7-1.6,1.6-1.6,1.6.7,1.6,1.6-.7,1.6-1.6,1.6ZM58.4,19.5c.9,0,1.6.7,1.6,1.6s-.7,1.6-1.6,1.6-1.6-.7-1.6-1.6.7-1.6,1.6-1.6ZM39,10.6c.9,0,1.6.7,1.6,1.6s-.7,1.6-1.6,1.6-1.6-.7-1.6-1.6.7-1.6,1.6-1.6ZM39,60.3c-.9,0-1.6-.7-1.6-1.6s.7-1.6,1.6-1.6,1.6.7,1.6,1.6-.7,1.6-1.6,1.6ZM60.4,50.1c-.6.3-1.2.4-1.9.4-1.8,0-3.6-.9-4.9-2-1.6-1.4-2.6-3.3-3.7-5.1-1.1-2-2.2-3.9-3.3-5.9-.8.7-1.7,1.3-2.6,1.8-1.1.7-2.2,1.5-3.5,2,0,3,0,6,0,8.9s-.8,1.5-1.5,1.5-1.5-.5-1.5-1.5c0-9.8-.2-19.7,0-29.5,0-.9.8-1.5,1.6-1.5s1,.2,1.2.7c.9,1.6,1.8,3.3,2.7,4.9,1.4,2.6,2.9,5.2,4.3,7.7.3-.3.5-.5.8-.8.7-.7,1.4-1.5,2.1-2.2.8-.8,1.5-1.8,2.2-2.6.3-.3.7-.5,1-.5,1.1,0,2.1,1.5,1.1,2.6-.8.9-1.5,1.9-2.4,2.8-1.1,1.1-2.2,2.3-3.3,3.4.9,1.6,1.8,3.3,2.7,4.9.8,1.4,1.5,2.9,2.4,4.2.8,1.3,2.1,2.6,3.7,2.9.3,0,.5,0,.7,0,.5,0,.9-.2,1.4-.7.7-.8,1.2-1.8,1.2-2.8,0-1,.8-1.5,1.6-1.5s1.5.5,1.4,1.5c-.1,2.3-1.5,5.2-3.7,6.2ZM64.6,37.2c-.9,0-1.6-.7-1.6-1.6s.7-1.6,1.6-1.6,1.6.7,1.6,1.6-.7,1.6-1.6,1.6Z"/>
</svg>