<?xml version="1.0" encoding="UTF-8"?>
<svg id="Calque_1" xmlns="http://www.w3.org/2000/svg" version="1.1" viewBox="0 0 70.87 70.87">
  <!-- Generator: Adobe Illustrator 29.0.0, SVG Export Plug-In . SVG Version: 2.1.0 Build 186)  -->
  <defs>
    <style>
      .st0 {
        fill: #fff;
      }

      .st1 {
        fill: #e73c57;
      }
    </style>
  </defs>
  <circle class="st1" cx="35.43" cy="35.43" r="35.43"/>
  <g>
    <path class="st0" d="M31.78,19.22c-.48,0-.95.22-1.24.73-2.2,3.85-4.3,7.75-6.46,11.62-.19.34-.38.68-.56,1.03-.93-.94-1.84-1.91-2.77-2.84-.87-.87-1.57-1.88-2.39-2.8-.31-.34-.66-.48-1-.48-1.12,0-2.13,1.51-1.14,2.62.79.87,1.45,1.84,2.27,2.68.76.78,1.52,1.56,2.29,2.33.41.42.82.83,1.24,1.25-1.62,2.99-3.24,5.99-5.05,8.85-.71,1.13-1.7,2.25-2.92,2.82-.47.22-1.02.39-1.55.39-.4,0-.78-.1-1.11-.34-.92-.68-1.55-2.09-1.61-3.19-.05-.97-.83-1.45-1.59-1.45s-1.48.48-1.43,1.45c.12,2.2,1.23,4.46,3.04,5.77.75.55,1.66.78,2.59.78,1.23,0,2.5-.4,3.51-.98,2.18-1.26,3.48-3.35,4.68-5.46,1.25-2.19,2.48-4.39,3.7-6.58.69.54,1.41,1.05,2.13,1.53,1.27.85,2.55,1.73,3.97,2.32-.02,2.98-.05,5.95-.05,8.93,0,.97.76,1.46,1.51,1.46s1.51-.49,1.51-1.46c0-9.82.24-19.66-.01-29.47-.02-.91-.8-1.49-1.58-1.49M30.42,37.9l-.32-.18c-.61-.37-1.21-.76-1.81-1.15-.55-.36-1.09-.73-1.62-1.11-.17-.12-.34-.24-.51-.37h0s-.18-.16-.18-.16l-.19-.17c1.36-2.45,2.72-4.91,4.08-7.36.19-.34.37-.67.56-1.01.03,3.84.03,7.67,0,11.51"/>
    <path class="st0" d="M31.91,57.14c-.88,0-1.59.71-1.59,1.59s.71,1.59,1.59,1.59,1.59-.71,1.59-1.59-.71-1.59-1.59-1.59"/>
    <path class="st0" d="M31.91,10.55c-.88,0-1.59.71-1.59,1.59s.71,1.59,1.59,1.59,1.59-.71,1.59-1.59-.71-1.59-1.59-1.59"/>
    <path class="st0" d="M12.47,19.49c-.88,0-1.59.71-1.59,1.59s.71,1.59,1.59,1.59,1.59-.71,1.59-1.59-.71-1.59-1.59-1.59"/>
    <path class="st0" d="M39.08,19.22c-.77,0-1.55.59-1.58,1.49-.25,9.82-.01,19.66-.01,29.47,0,.97.76,1.46,1.51,1.46s1.51-.49,1.51-1.46c0-2.97-.02-5.95-.04-8.93,1.24-.51,2.37-1.26,3.49-2,.89-.59,1.78-1.19,2.62-1.85,1.1,1.97,2.19,3.94,3.31,5.9,1.06,1.86,2.05,3.72,3.7,5.15,1.27,1.1,3.13,2.02,4.91,2.02.65,0,1.3-.12,1.9-.4,2.21-1.04,3.57-3.87,3.69-6.19.05-.97-.68-1.45-1.43-1.45s-1.54.48-1.59,1.45c-.05,1.05-.56,2.02-1.24,2.81-.45.52-.85.72-1.4.72-.21,0-.44-.03-.7-.08-1.55-.29-2.84-1.62-3.69-2.89-.9-1.35-1.64-2.82-2.44-4.23-.91-1.62-1.81-3.25-2.71-4.87,1.13-1.12,2.22-2.3,3.33-3.42.87-.88,1.59-1.9,2.42-2.82,1-1.1-.02-2.62-1.14-2.62-.34,0-.69.14-1,.48-.77.86-1.43,1.82-2.24,2.65-.72.73-1.43,1.46-2.15,2.19-.25.26-.51.52-.77.77-1.44-2.58-2.88-5.16-4.31-7.74-.9-1.63-1.79-3.26-2.72-4.88-.29-.51-.76-.73-1.24-.73M40.45,37.9c-.03-3.85-.04-7.69,0-11.54,1.55,2.8,3.09,5.59,4.65,8.39l-.4.34-.19.14c-.46.33-.93.65-1.39.97-.68.46-1.37.91-2.07,1.35-.19.12-.39.23-.59.35"/>
    <path class="st0" d="M38.95,57.14c-.88,0-1.59.71-1.59,1.59s.71,1.59,1.59,1.59,1.59-.71,1.59-1.59-.71-1.59-1.59-1.59"/>
    <path class="st0" d="M38.95,10.55c-.88,0-1.59.71-1.59,1.59s.71,1.59,1.59,1.59,1.59-.71,1.59-1.59-.71-1.59-1.59-1.59"/>
    <path class="st0" d="M64.55,34c-.88,0-1.59.71-1.59,1.59s.71,1.59,1.59,1.59,1.59-.71,1.59-1.59-.71-1.59-1.59-1.59"/>
    <path class="st0" d="M58.4,22.67c.88,0,1.59-.71,1.59-1.59s-.71-1.59-1.59-1.59-1.59.71-1.59,1.59.71,1.59,1.59,1.59"/>
    <path class="st0" d="M6.32,34c.88,0,1.59.71,1.59,1.59s-.71,1.59-1.59,1.59-1.59-.71-1.59-1.59c0-.88.71-1.59,1.59-1.59"/>
  </g>
</svg>