<?xml version="1.0" encoding="UTF-8"?>
<svg id="Calque_1" xmlns="http://www.w3.org/2000/svg" xmlns:xmpTPg="http://ns.adobe.com/xap/1.0/t/pg/" xmlns:xmpMM="http://ns.adobe.com/xap/1.0/mm/" xmlns:xmpGImg="http://ns.adobe.com/xap/1.0/g/img/" xmlns:xmpG="http://ns.adobe.com/xap/1.0/g/" xmlns:xmp="http://ns.adobe.com/xap/1.0/" xmlns:x="adobe:ns:meta/" xmlns:stRef="http://ns.adobe.com/xap/1.0/sType/ResourceRef#" xmlns:stEvt="http://ns.adobe.com/xap/1.0/sType/ResourceEvent#" xmlns:stDim="http://ns.adobe.com/xap/1.0/sType/Dimensions#" xmlns:rdf="http://www.w3.org/1999/02/22-rdf-syntax-ns#" xmlns:dc="http://purl.org/dc/elements/1.1/" version="1.1" viewBox="0 0 30 30">
  <!-- Generator: Adobe Illustrator 29.0.1, SVG Export Plug-In . SVG Version: 2.1.0 Build 192)  -->
  <defs>
    <style>
      .st0 {
        fill: #fff;
      }
    </style>
  </defs>
  <path class="st0" d="M12.9,11.2c0,.1-.2.3-.2.4-.6,1-1.2,2.1-1.7,3.1h0c0,0,0,.1,0,.1h0c0,0,.1.1.2.2.2.2.5.3.7.5.3.2.5.3.8.5h.1c0-1.5,0-3.2,0-4.8Z"/>
  <path class="st0" d="M17.1,16c0,0,.2,0,.3-.1.3-.2.6-.4.9-.6.2-.1.4-.3.6-.4h0c0,0,.2-.2.2-.2-.7-1.2-1.3-2.4-2-3.6,0,1.6,0,3.3,0,4.9Z"/>
  <path class="st0" d="M15,0C6.7,0,0,6.7,0,15s6.7,15,15,15,15-6.7,15-15S23.3,0,15,0ZM5.3,8.3c.4,0,.7.3.7.7s-.3.7-.7.7-.7-.3-.7-.7.3-.7.7-.7ZM2,15.1c0-.4.3-.7.7-.7s.7.3.7.7-.3.7-.7.7-.7-.3-.7-.7ZM10.3,15.8c-.5.9-1,1.9-1.6,2.8-.5.9-1.1,1.8-2,2.3-.4.2-1,.4-1.5.4s-.8,0-1.1-.3c-.8-.6-1.2-1.5-1.3-2.4,0-.4.3-.6.6-.6s.7.2.7.6c0,.5.3,1.1.7,1.4.1.1.3.1.5.1s.5,0,.7-.2c.5-.2.9-.7,1.2-1.2.8-1.2,1.5-2.5,2.1-3.7-.2-.2-.4-.4-.5-.5-.3-.3-.6-.7-1-1-.3-.4-.6-.8-1-1.1-.4-.5,0-1.1.5-1.1s.3,0,.4.2c.3.4.6.8,1,1.2.4.4.8.8,1.2,1.2,0-.1.2-.3.2-.4.9-1.6,1.8-3.3,2.7-4.9.1-.2.3-.3.5-.3.3,0,.7.2.7.6.1,4.2,0,8.3,0,12.5,0,.4-.3.6-.6.6s-.6-.2-.6-.6c0-1.3,0-2.5,0-3.8-.6-.2-1.1-.6-1.7-1-.3-.2-.6-.4-.9-.6ZM13.5,25.5c-.4,0-.7-.3-.7-.7s.3-.7.7-.7.7.3.7.7-.3.7-.7.7ZM13.5,5.8c-.4,0-.7-.3-.7-.7s.3-.7.7-.7.7.3.7.7-.3.7-.7.7ZM24.7,8.3c.4,0,.7.3.7.7s-.3.7-.7.7-.7-.3-.7-.7.3-.7.7-.7ZM16.5,4.5c.4,0,.7.3.7.7s-.3.7-.7.7-.7-.3-.7-.7.3-.7.7-.7ZM16.5,25.5c-.4,0-.7-.3-.7-.7s.3-.7.7-.7.7.3.7.7-.3.7-.7.7ZM25.6,21.2c-.3.1-.5.2-.8.2-.8,0-1.5-.4-2.1-.9-.7-.6-1.1-1.4-1.6-2.2-.5-.8-.9-1.7-1.4-2.5-.4.3-.7.5-1.1.8-.5.3-1,.6-1.5.8,0,1.3,0,2.5,0,3.8s-.3.6-.6.6-.6-.2-.6-.6c0-4.2-.1-8.3,0-12.5,0-.4.3-.6.7-.6s.4,0,.5.3c.4.7.8,1.4,1.2,2.1.6,1.1,1.2,2.2,1.8,3.3.1-.1.2-.2.3-.3.3-.3.6-.6.9-.9.3-.3.6-.8.9-1.1.1-.1.3-.2.4-.2.5,0,.9.6.5,1.1-.4.4-.7.8-1,1.2-.5.5-.9,1-1.4,1.4.4.7.8,1.4,1.1,2.1.3.6.7,1.2,1,1.8.4.5.9,1.1,1.6,1.2.1,0,.2,0,.3,0,.2,0,.4,0,.6-.3.3-.3.5-.7.5-1.2,0-.4.4-.6.7-.6s.6.2.6.6c0,1-.6,2.2-1.6,2.6ZM27.3,15.7c-.4,0-.7-.3-.7-.7s.3-.7.7-.7.7.3.7.7-.3.7-.7.7Z"/>
  <metadata>
    <x:xmpmeta xmlns:x="adobe:ns:meta/">
      <rdf:RDF xmlns:rdf="http://www.w3.org/1999/02/22-rdf-syntax-ns#">
        <rdf:Description rdf:about="" xmlns:dc="http://purl.org/dc/elements/1.1/" xmlns:stDim="http://ns.adobe.com/xap/1.0/sType/Dimensions#" xmlns:stEvt="http://ns.adobe.com/xap/1.0/sType/ResourceEvent#" xmlns:stRef="http://ns.adobe.com/xap/1.0/sType/ResourceRef#" xmlns:xmp="http://ns.adobe.com/xap/1.0/" xmlns:xmpG="http://ns.adobe.com/xap/1.0/g/" xmlns:xmpGImg="http://ns.adobe.com/xap/1.0/g/img/" xmlns:xmpMM="http://ns.adobe.com/xap/1.0/mm/" xmlns:xmpTPg="http://ns.adobe.com/xap/1.0/t/pg/">
          <xmp:CreatorTool>Adobe Illustrator 29.0 (Macintosh)
          </xmp:CreatorTool>
          <xmp:CreateDate>2024-11-08T14:27:56+01:00
          </xmp:CreateDate>
          <xmp:Thumbnails>
            <rdf:Alt>
              <rdf:li rdf:parseType="Resource">
                <xmpGImg:width>256
                </xmpGImg:width>
                <xmpGImg:height>256
                </xmpGImg:height>
                <xmpGImg:format>JPEG
                </xmpGImg:format>
                <xmpGImg:image>/9j/4AAQSkZJRgABAgEASABIAAD/7QAsUGhvdG9zaG9wIDMuMAA4QklNA+0AAAAAABAASAAAAAEA
AQBIAAAAAQAB/+4ADkFkb2JlAGTAAAAAAf/bAIQABgQEBAUEBgUFBgkGBQYJCwgGBggLDAoKCwoK
DBAMDAwMDAwQDA4PEA8ODBMTFBQTExwbGxscHx8fHx8fHx8fHwEHBwcNDA0YEBAYGhURFRofHx8f
Hx8fHx8fHx8fHx8fHx8fHx8fHx8fHx8fHx8fHx8fHx8fHx8fHx8fHx8fHx8f/8AAEQgBAAEAAwER
AAIRAQMRAf/EAaIAAAAHAQEBAQEAAAAAAAAAAAQFAwIGAQAHCAkKCwEAAgIDAQEBAQEAAAAAAAAA
AQACAwQFBgcICQoLEAACAQMDAgQCBgcDBAIGAnMBAgMRBAAFIRIxQVEGE2EicYEUMpGhBxWxQiPB
UtHhMxZi8CRygvElQzRTkqKyY3PCNUQnk6OzNhdUZHTD0uIIJoMJChgZhJRFRqS0VtNVKBry4/PE
1OT0ZXWFlaW1xdXl9WZ2hpamtsbW5vY3R1dnd4eXp7fH1+f3OEhYaHiImKi4yNjo+Ck5SVlpeYmZ
qbnJ2en5KjpKWmp6ipqqusra6voRAAICAQIDBQUEBQYECAMDbQEAAhEDBCESMUEFURNhIgZxgZEy
obHwFMHR4SNCFVJicvEzJDRDghaSUyWiY7LCB3PSNeJEgxdUkwgJChgZJjZFGidkdFU38qOzwygp
0+PzhJSktMTU5PRldYWVpbXF1eX1RlZmdoaWprbG1ub2R1dnd4eXp7fH1+f3OEhYaHiImKi4yNjo
+DlJWWl5iZmpucnZ6fkqOkpaanqKmqq6ytrq+v/aAAwDAQACEQMRAD8A9U4q7FXYq7FXYq7FXYq7
FXYq7FXYq7FXYq7FXYq7FXYq7FXYq7FXYq7FXYq7FXYq7FXYq7FXYq7FXYq7FXYq7FXYq7FXYq7F
XYq7FXYq7FXYq7FXYq7FXYq7FXYq7FXYq7FXYq7FXYq7FXYq7FXYq7FXYq7FXYq7FXYq7FXYq7FX
Yq7FXYq7FXYq7FXYq7FXYq7FXYq7FXYq7FXYq7FXYq7FXYq7FXYq7FXYq7FXYq7FXYq7FXYq7FXY
q7FXYq7FXYq7FXYq7FXYq7FXYq7FXYq7FXYq7FXYq7FXYq7FXYq7FXYq7FXYq7FXYq7FXYq7FXYq
7FXYq7FXYq7FXYq7FXYq7FXYq7FXYq7FXYq7FXYq7FXYq7FXYq7FXYq7FXYq7FXYq7FXYq7FXYq7
FXYq7FXYq7FXYq7FXYq7FXYq7FXYq7FXYq7FXYq7FXYq7FXYq7FXYq7FXYq7FXYq7FXYq7FXYq7F
XYq7FXYq7FXYq7FXYq7FXYq7FXYq7FXYq7FXYq7FXYq7FXYq7FXYq7FXYq7FXYq7FXYq7FXYq7FX
Yq7FXYq7FXYq7FXYq7FXYq7FXYq7FXYq7FXYq7FXYq7FXYq7FXYq7FXYq7FXYq7FXYq7FXYq7FXY
q7FXYq7FXYq7FXYq7FXYq7FXYq7FXYq7FXYq7FXYq7FXYq7FXYq7FXYq7FXYq7FXYq7FXYq7FXYq
7FXYq7FXYq7FXYq7FXYq7FXYq7FXYq7FXYq7FXYq7FXYq7FXYq7FXYq7FXYq7FXYq7FXYq7FXYq7
FXYq7FXYq7FXYq7FXYq7FXYq7FXYq7FXYq7FXYq7FXYq7FXYq7FXYq7FXYq7FXYq7FXYq7FXYq7F
XYq7FXYq7FXYq7FXYq7FXYq7FXYq7FXYq7FXYq7FXYq7FXYq7FXYq7FXYq7FXYq7FXYq7FXYq7FX
Yq7FXYq7FXYq7FXYq7FXYq7FXYq7FXYq7FXYq7FXYq7FXYq7FXYq7FXYq7FXYq7FXYq7FXYq7FXY
q7FXYq7FXYq7FXYq7FXYq7FXYq7FXYq7FXYq7FXYq7FXYq7FXYq7FXYq7FXYq7FXYq7FXYq7FXYq
7FXYq7FXYq7FXYq7FXYq7FXYq7FXYq7FXYq7FXYq7FXYq7FXYq7FXYq7FXYq7FXYq7FXYq7FXYq7
FXYq7FXYq7FXYq7FXYq7FXYq7FXYq7FXYq7FXYq7FXYq7FXYq7FXYq7FXYq7FXYq7FXYq7FXYq7F
XYq7FXYq7FXYq7FXYq7FXYq7FXYq7FXYq7FXYq7FXYq7FXYq7FXYq7FXYq7FXYq7FXYq7FXYq7FX
Yq7FXYq7FXYq7FXYq7FXYq7FXYq7FXYq7FXYq7FXYq7FXYq7FXYq7FXYq7FXYq7FXYq7FXYq7FXY
q7FXYq7FXYq7FXYq7FXYq7FXYq7FXYq7FXYq7FXYq7FXYq7FXYq7FXYq7FXYq7FXYq7FXYq7FXYq
7FXYq7FXYq7FXYq7FXYq7FXYq7FXYq7FXYq7FXYq7FXYq7FXYq7FXYq7FXYq7FXYq7FXYq7FXYq7
FXYq7FXYq7FXYq7FXYq7FXYq7FXYq7FXYq7FXYq7FXYq7FXYq7FXYq7FXYq7FXYq7FXYq7FXYq7F
XYq7FXYq7FXYq7FXYq7FXYq7FXYq7FXYq7FXYq7FXYq7FXYq7FXYq7FXYq7FXYq7FXYq7FXYq7FX
Yq7FXYq7FXYq7FXYq7FXYq7FXYq7FXYq7FXYq7FXYq7FXYq7FXYq7FXYq7FXYq7FXYq7FXYq7FXY
q7FXYq7FXYq7FXYq7FXYq7FXYq7FXYq7FXYq7FXYq7FXYq7FXYq7FXYq7FXYq7FXYq7FXYq7FXYq
7FXYq7FXYq7FXYq7FXYq7FXYq7FXYq7FXYq7FXYq7FXYq7FXYq7FXYq7FXYq7FXYq7FXYq7FXYq7
FXYq7FXYq7FXYq7FXYq7FXYq7FXYq7FXYq7FXYq7FXYq7FXYq7FXYq7FXYq7FXYq7FXYq7FXYq7F
XYq7FXYq7FXYq7FXYq7FXYq7FXYq7FXYq7FXYq7FXYq7FXYq7FXYq7FXYq7FXYq7FXYq7FXYq7FX
Yq7FXYq7FXYq7FXYq7FXYq7FXYq7FXYq7FXYq7FXYq7FXYq7FXYq7FXYq7FXYq7FXYq7FXYq7FXY
q7FXYq7FXYq7FXYq7FXYq7FXYq7FXYq7FXYq7FXYq7FXYq7FXYq7FXYq7FXYq7FXYq7FXYq7FXYq
7FXYq7FXYq7FXYq7FXYq7FXYq7FXYq7FXYq7FXYq7FXYq7FXYq7FXYq7FXYq7FXYq7FXYq7FXYq7
FXYq7FXYq7FXYq7FXYq7FXYq7FXYq7FXYq7FXYq7FXYq7FXYq7FXYq7FXYq7FXYq7FXYq7FXYq7F
XYq7FXYq7FXYq7FXYq7FXYq7FXYq7FXYq7FXYq7FXYq7FXYq7FXYq7FXYq7FXYq7FXYq7FXYq7FX
Yq7FXYq7FXYq7FXYq7FXYq7FXYq7FXYq7FXYq7FXYq7FXYq7FXYq7FXYq7FXYq7FXYq7FXYq7FXY
q7FXYq7FXYq7FXYq7FXYq7FXYq7FXYq7FX//2Q==
                </xmpGImg:image>
              </rdf:li>
            </rdf:Alt>
          </xmp:Thumbnails>
          <xmp:MetadataDate>2024-11-08T14:27:56+01:00
          </xmp:MetadataDate>
          <xmp:ModifyDate>2024-11-08T14:27:56+01:00
          </xmp:ModifyDate>
          <xmpTPg:MaxPageSize rdf:parseType="Resource">
            <stDim:w>7.900000
            </stDim:w>
            <stDim:h>7.900000
            </stDim:h>
            <stDim:unit>Points
            </stDim:unit>
          </xmpTPg:MaxPageSize>
          <xmpTPg:NPages>1
          </xmpTPg:NPages>
          <xmpTPg:HasVisibleTransparency>False
          </xmpTPg:HasVisibleTransparency>
          <xmpTPg:HasVisibleOverprint>False
          </xmpTPg:HasVisibleOverprint>
          <xmpTPg:SwatchGroups>
            <rdf:Seq>
              <rdf:li rdf:parseType="Resource">
                <xmpG:groupName>Groupe de nuances par défaut
                </xmpG:groupName>
                <xmpG:groupType>0
                </xmpG:groupType>
              </rdf:li>
            </rdf:Seq>
          </xmpTPg:SwatchGroups>
          <dc:format>image/svg+xml
          </dc:format>
          <xmpMM:InstanceID>xmp.iid:0fa1bbc9-abc2-4328-9c23-b4072007b318
          </xmpMM:InstanceID>
          <xmpMM:DocumentID>xmp.did:0fa1bbc9-abc2-4328-9c23-b4072007b318
          </xmpMM:DocumentID>
          <xmpMM:OriginalDocumentID>xmp.did:3eaee6fe-91ae-4971-993d-e3aefeb9fc40
          </xmpMM:OriginalDocumentID>
          <xmpMM:DerivedFrom rdf:parseType="Resource">
            <stRef:instanceID>xmp.iid:3eaee6fe-91ae-4971-993d-e3aefeb9fc40
            </stRef:instanceID>
            <stRef:documentID>xmp.did:3eaee6fe-91ae-4971-993d-e3aefeb9fc40
            </stRef:documentID>
            <stRef:originalDocumentID>xmp.did:3eaee6fe-91ae-4971-993d-e3aefeb9fc40
            </stRef:originalDocumentID>
          </xmpMM:DerivedFrom>
          <xmpMM:History>
            <rdf:Seq>
              <rdf:li rdf:parseType="Resource">
                <stEvt:action>saved
                </stEvt:action>
                <stEvt:instanceID>xmp.iid:0fa1bbc9-abc2-4328-9c23-b4072007b318
                </stEvt:instanceID>
                <stEvt:when>2024-11-08T14:27:56+01:00
                </stEvt:when>
                <stEvt:softwareAgent>Adobe Illustrator 29.0 (Macintosh)
                </stEvt:softwareAgent>
                <stEvt:changed>/
                </stEvt:changed>
              </rdf:li>
            </rdf:Seq>
          </xmpMM:History>
        </rdf:Description>
      </rdf:RDF>
    </x:xmpmeta>
    <sfw xmlns="http://ns.adobe.com/SaveForWeb/1.0/">
      <slices/>
      <sliceSourceBounds x="0" y="0" width="30" height="30" bottomLeftOrigin="true"/>
    </sfw>
  </metadata>
</svg>